<svg xmlns="http://www.w3.org/2000/svg" version="1.1" xmlns:xlink="http://www.w3.org/1999/xlink" xmlns:svgjs="http://svgjs.com/svgjs" width="512" height="512" x="0" y="0" viewBox="0 0 682.66669 682.66669" style="enable-background:new 0 0 512 512" xml:space="preserve" class=""><g><defs id="defs3154"><clipPath clipPathUnits="userSpaceOnUse" id="clipPath3164"><path d="M 0,512 H 512 V 0 H 0 Z" id="path3162" fill="#000000" data-original="#000000"></path></clipPath></defs><g id="g3156" transform="matrix(1.3333333,0,0,-1.3333333,0,682.66667)"><g id="g3158"><g id="g3160" clip-path="url(#clipPath3164)"><g id="g3166" transform="translate(482.3975,242.6104)"><path d="m 0,0 v -181.4 c 0,-28.16 -23.052,-51.21 -51.211,-51.21 h -341.4 c -28.159,0 -51.209,23.044 -51.209,51.21 V 0 Z" style="stroke-width:20;stroke-linecap:round;stroke-linejoin:round;stroke-miterlimit:22.926;stroke-dasharray:none;stroke-opacity:1" id="path3168" fill="none" stroke="#000000" stroke-width="20" stroke-linecap="round" stroke-linejoin="round" stroke-miterlimit="22.926" stroke-dasharray="none" stroke-opacity="" data-original="#000000" class=""></path></g><g id="g3170" transform="translate(454.4521,476.3242)"><path d="m 0,0 c -11.357,19.677 -35.047,30.129 -57.921,23.86 l -329.261,-90.235 c -27.162,-7.444 -43.296,-35.763 -35.853,-62.924 l 7.16,-26.121 389.453,106.732" style="stroke-width:20;stroke-linecap:round;stroke-linejoin:round;stroke-miterlimit:22.926;stroke-dasharray:none;stroke-opacity:1" id="path3172" fill="none" stroke="#000000" stroke-width="20" stroke-linecap="round" stroke-linejoin="round" stroke-miterlimit="22.926" stroke-dasharray="none" stroke-opacity="" data-original="#000000" class=""></path></g><path d="m 38.577,320.904 h 443.82 V 242.61 H 38.577 Z" style="stroke-width:20;stroke-linecap:round;stroke-linejoin:round;stroke-miterlimit:22.926;stroke-dasharray:none;stroke-opacity:1" id="path3174" fill="none" stroke="#000000" stroke-width="20" stroke-linecap="round" stroke-linejoin="round" stroke-miterlimit="22.926" stroke-dasharray="none" stroke-opacity="" data-original="#000000" class=""></path><g id="g3176" transform="translate(322.1963,398.6318)"><path d="m 0,0 -85.837,57.656 m 1.294,-80.826 -85.838,57.657 m 1.294,-80.827 -85.839,57.657 M 84.543,23.169 -1.294,80.826" style="stroke-width:20;stroke-linecap:round;stroke-linejoin:round;stroke-miterlimit:22.926;stroke-dasharray:none;stroke-opacity:1" id="path3178" fill="none" stroke="#000000" stroke-width="20" stroke-linecap="round" stroke-linejoin="round" stroke-miterlimit="22.926" stroke-dasharray="none" stroke-opacity="" data-original="#000000" class=""></path></g><g id="g3180" transform="translate(332.6543,320.9043)"><path d="M 0,0 -67.546,-78.294 M -87.661,0 -155.207,-78.294 M -175.322,0 -242.868,-78.294 M 87.661,0 20.115,-78.294" style="stroke-width:20;stroke-linecap:round;stroke-linejoin:round;stroke-miterlimit:22.926;stroke-dasharray:none;stroke-opacity:1" id="path3182" fill="none" stroke="#000000" stroke-width="20" stroke-linecap="round" stroke-linejoin="round" stroke-miterlimit="22.926" stroke-dasharray="none" stroke-opacity="" data-original="#000000" class=""></path></g><g id="g3184" transform="translate(101.3184,115.8916)"><path d="M 0,0 H 318.335 M 200.665,-31.785 200.667,0 M 117.669,-31.785 V 0 M 0,59.444 h 318.335" style="stroke-width:20;stroke-linecap:round;stroke-linejoin:round;stroke-miterlimit:22.926;stroke-dasharray:none;stroke-opacity:1" id="path3186" fill="none" stroke="#000000" stroke-width="20" stroke-linecap="round" stroke-linejoin="round" stroke-miterlimit="22.926" stroke-dasharray="none" stroke-opacity="" data-original="#000000" class=""></path></g><g id="g3188" transform="translate(466.6143,428.21)"><path d="M 0,0 C 5.508,0 10,4.492 10,10 10,15.508 5.508,20 0,20 -5.508,20 -10,15.508 -10,10 -10,4.492 -5.508,0 0,0" style="fill-opacity:1;fill-rule:evenodd;stroke:none" id="path3190" fill="#000000" data-original="#000000"></path></g></g></g></g></g></svg>