<svg xmlns="http://www.w3.org/2000/svg" version="1.1" xmlns:xlink="http://www.w3.org/1999/xlink" xmlns:svgjs="http://svgjs.com/svgjs" width="512" height="512" x="0" y="0" viewBox="0 0 48 48" style="enable-background:new 0 0 512 512" xml:space="preserve" class=""><g><g id="Line"><path d="M42,21a4,4,0,0,0-2.34.75L35,25.06V24a5,5,0,0,0-5-5h-.23a8,8,0,1,0-10.54,0H14.46a6,6,0,1,0-8.75.19A5,5,0,0,0,2,24V38a5,5,0,0,0,5,5H30a5,5,0,0,0,5-5V36.94l4.63,3.31A4,4,0,0,0,46,37V25A4,4,0,0,0,42,21ZM18.5,13a6,6,0,1,1,6,6A6,6,0,0,1,18.5,13ZM10,11a4,4,0,1,1-4,4A4,4,0,0,1,10,11ZM33,38a3,3,0,0,1-3,3H7a3,3,0,0,1-3-3V24a3,3,0,0,1,3-3H30a3,3,0,0,1,3,3V38Zm11-1a2,2,0,0,1-3.21,1.65L35,34.49v-7l5.79-4.13A2,2,0,0,1,44,25Z" fill="#000000" data-original="#000000"></path></g></g></svg>