<svg xmlns="http://www.w3.org/2000/svg" version="1.1" xmlns:xlink="http://www.w3.org/1999/xlink" xmlns:svgjs="http://svgjs.com/svgjs" width="512" height="512" x="0" y="0" viewBox="0 0 512 512" style="enable-background:new 0 0 512 512" xml:space="preserve" class=""><g><path d="m384 384h-256c-44.161-.053-79.947-35.839-80-80v-160c.053-44.161 35.839-79.947 80-80h256c44.161.053 79.947 35.839 80 80v160c-.053 44.161-35.839 79.947-80 80zm-256-288c-26.51 0-48 21.49-48 48v160c0 26.51 21.49 48 48 48h256c26.51 0 48-21.49 48-48v-160c0-26.51-21.49-48-48-48z" fill="#000000" data-original="#000000"></path><path d="m416 448h-320c-8.837 0-16-7.163-16-16s7.163-16 16-16h320c8.837 0 16 7.163 16 16s-7.163 16-16 16z" fill="#000000" data-original="#000000"></path><path d="m225.808 308.336c-17.64-.079-31.921-14.36-32-32v-104.624c0-17.673 14.328-32 32.001-31.999 5.617 0 11.135 1.479 15.999 4.287l90.544 52.288c15.305 8.837 20.548 28.408 11.711 43.713-2.808 4.864-6.847 8.902-11.711 11.711l-90.544 52.288c-4.857 2.832-10.377 4.328-16 4.336zm90.56-84.336-90.56-52.288v104.576z" fill="#000000" data-original="#000000"></path></g></svg>